<?xml version="1.0" encoding="utf-8"?>
<!-- Svg Vector Icons : http://www.onlinewebfonts.com/icon -->
<!DOCTYPE svg PUBLIC "-//W3C//DTD SVG 1.1//EN" "http://www.w3.org/Graphics/SVG/1.1/DTD/svg11.dtd">
<svg version="1.1" xmlns="http://www.w3.org/2000/svg" xmlns:xlink="http://www.w3.org/1999/xlink" x="0px" y="0px" viewBox="0 0 1000 1000" enable-background="new 0 0 1000 1000" xml:space="preserve">
<metadata> Svg Vector Icons : http://www.onlinewebfonts.com/icon </metadata>
<g><g><path d="M188.9,524.2c-6.7-10.6-10.3-22.8-10.3-35.4c0-3.2,0.2-6.4,0.7-9.5c1.5-10-6.3-20.4-18.4-24.7l-66.5-23.3c-12.9-4.4-27.4,3.3-30.3,16.2c-3.1,13.5-4.6,27.4-4.6,41.3c0,43.2,15.2,85.3,42.8,118.4c4.3,5.2,10.7,8.2,17.5,8.2c6.3,0,12.5-2.6,17-7.1l49.8-49.8C195.2,549.8,196.2,535.7,188.9,524.2z M174.9,547.1l-49.8,49.8c-1.5,1.5-3.5,2.3-5.5,2.3c-1.1,0-3.3-0.3-5-2.3c-25.2-30.2-39-68.5-39-107.9c0-12.7,1.4-25.4,4.2-37.7c0.8-3.4,3.8-4.9,6.5-4.9c0.9,0,1.8,0.2,2.6,0.4l66.5,23.3c5.8,2,7.8,6,7.7,7c-0.5,3.9-0.8,7.8-0.8,11.8c0,15.7,4.4,30.9,12.8,44.1C177.8,537.2,178.6,543.4,174.9,547.1z M314.1,547.5c-8.3-8.8-23.2-9.8-34.1-2.9c-13.1,8.4-29.3,11.8-44.5,9.6l-2.2-0.2c-9.1,0-18.2,7.7-22.1,18.7l-23.8,66.4c-2.3,6.4-1.8,13.5,1.4,19.3c3.1,5.7,8.3,9.6,14.6,11c13.5,3.1,27.3,4.6,41.3,4.6c42.2,0,83.5-14.6,116.3-41.1c5-4,8-9.8,8.4-16.3c0.4-6.7-2-13.3-6.7-18.2C362.6,598.5,314.1,547.5,314.1,547.5z M350.6,620.4c-39.7,32.1-94.2,44.5-143.7,33.2c-2.2-0.5-3.4-1.9-3.9-3c-1-1.8-1.1-3.9-0.4-6l23.8-66.4c1.9-5.4,5.7-7.9,6.7-7.9c18.8,2.6,39.1-1.6,55.6-12c3.8-2.5,8.9-4.6,13.6,0.4l48.5,51c1.6,1.6,2.4,3.8,2.2,6C352.9,617,352.4,618.9,350.6,620.4z M352.7,370l-48.3,51.4c-8.2,8.8-9.3,23-2.6,34.6c5.8,10,8.8,21.4,8.8,33c0,3.2-0.2,6.4-0.7,9.5c-1.4,10,6.3,20.4,18.4,24.6l66.5,23.5c2.6,0.9,5.3,1.4,8,1.4c10.8,0,19.9-7.2,22.3-17.5c3.1-13.5,4.7-27.5,4.7-41.5c0-43.2-15.2-85.3-42.8-118.4C378.6,360.5,361.8,360.2,352.7,370z M409.2,526.7c-1,4.5-5.6,5.6-9.1,4.4l-66.5-23.5c-5.7-2-7.9-6-7.8-7c0.6-3.9,0.9-7.8,0.9-11.8c0-14.5-3.8-28.7-11-41.1c-3-5.2-2.8-11.8,0.4-15.3l48.3-51.4c1.4-1.5,3.4-2.4,5.3-2.4c1.3,0,3.1,0.4,4.6,2.2c25.2,30.2,39,68.5,39,107.9C413.5,501.7,412,514.4,409.2,526.7z M177.3,428.5c4.8,4.8,11.4,7.4,18.7,7.4c5.5,0,10.9-1.5,15.7-4.2c13-7.5,28.8-10.2,43.1-8l2.8,0.2c9.6,0,18.9-7.5,22.7-18.3l22.9-66.6c2.2-6.5,1.7-13.5-1.6-19.3c-3.1-5.7-8.3-9.6-14.6-11c-54.6-12.8-114.4,0.5-158.3,35.7c-5.1,4-8,9.8-8.4,16.3c-0.4,6.7,2.2,13.2,7,18L177.3,428.5z M139,357c30.2-24.2,66.7-37.1,105.6-37.1c13.1,0,26.2,1.5,38.9,4.5c2.2,0.5,3.4,2,4,3.1c1,1.8,1.2,4.1,0.5,6.2L265,400.3c-1.7,5-5.3,7.3-7.6,7.3c0,0,0,0-0.1,0c-18-2.8-37.6,0.6-53.8,10c-4.1,2.4-9.8,4.4-14.8-0.6L139,367.2c-1.6-1.6-2.4-3.6-2.3-5.6C136.8,360.3,137.2,358.5,139,357z M968.3,212c-39.8-23.6-84.6-35.6-133.3-35.6c-57.8,0-151.8,17.5-271.8,100.8l-2.9,2c-15,10.3-61.8,33.4-129.5,63.6c-1.8,0-3.7-1-4.4-1.9c-44.8-55.1-111.1-86.6-181.9-86.6C115.2,254.3,10,359.5,10,488.9c0,129.4,105.2,234.6,234.6,234.6c68.2,0,133-29.8,177.6-81.8c3.2-3.6,10.5-7.5,14.5-7.6c12.1-0.3,27.8-0.6,46-0.6c68.1,0,193.1,4.3,266,32.8c88.2,34.5,170.8,115.2,202.2,148.3c5.6,6,11.8,9,18.3,9c10,0,20.8-7.7,20.8-24.5v-548C990,236.1,980.7,219.3,968.3,212z M957.4,774.8C916.9,734.5,841.6,667.7,760.5,636c-74-28.9-191.9-35-277.8-35c-18.6,0-34.6,0.3-46.9,0.6c-13.1,0.4-29.2,8.3-38.3,18.9c-38.5,44.7-94.3,70.4-153,70.4c-111.4,0-202-90.6-202-202c0-111.4,90.6-202,202-202c61,0,118,27.2,156.6,74.6c10.2,12.5,29.5,17.4,44,10.9c40.2-18.1,111-50.7,133.6-66.3l3-2.1c113.1-78.5,200.2-95,253.3-95c42.7,0,82,10.4,116.7,31c2.4,1.4,5.7,7.4,5.7,11C957.4,251.1,957.4,774.8,957.4,774.8z M241.7,454c18.7,0,33.9,15.2,33.9,33.9s-15.2,33.9-33.9,33.9c-18.7,0-33.9-15.2-33.9-33.9S222.9,454,241.7,454z M890.6,296.8l6-0.1v-57.8l-6.2,0.1c-15.9,0.3-32.5,1.8-49.5,4.5l-5.2,0.8v58l7-1.1C859.1,298.6,875.2,297.1,890.6,296.8z M847.9,254.8c12.4-1.8,24.6-2.9,36.5-3.4v33.4c-11.9,0.4-24.1,1.5-36.5,3.2V254.8z M808.9,304.5l4.8-1v-58.1l-7.4,1.6c-15.6,3.4-31.6,7.7-47.7,12.9l-4.2,1.3v58.4l8-2.6C778.1,312,793.8,307.8,808.9,304.5z M766.6,270.1c11.7-3.7,23.5-6.9,34.9-9.6v33.1c-11.5,2.6-23.2,5.7-34.9,9.3V270.1z M731.9,322.2l4-1.5v-58.6l-8.2,3.1c-15.6,5.8-31.4,12.4-47,19.7l-3.5,1.7v59.1l8.7-4C701.1,334.4,716.6,327.9,731.9,322.2z M689.2,294.4c11.5-5.2,23-10.1,34.4-14.6v32.5c-11.4,4.3-22.9,9.1-34.4,14.3V294.4z M664.4,349.8l3.3-1.7v-59.3l-8.9,4.5c-13.3,6.8-26.5,14.1-39.2,21.6l-3,1.8v59.8l9.2-5.4C638.3,363.6,651.3,356.5,664.4,349.8z M628.8,323.7c8.8-5.1,17.7-10.1,26.8-14.9v31.8c-9,4.7-18,9.5-26.8,14.5V323.7z M586.4,390.7c5-3.4,10.5-6.9,16.4-10.7l2.8-1.8v-60l-9.3,5.9c-6,3.8-11.6,7.4-16.7,10.9c-5.6,3.8-11.1,7.4-16.5,10.6l-2.9,1.8v59.9l9.3-5.7C574.9,398.3,580.5,394.7,586.4,390.7z M572.3,354.3c4.6-2.8,9.2-5.9,14-9.1c2.2-1.5,4.6-3.1,7-4.7v31.1c-4.9,3.1-9.5,6.2-13.8,9.1c-2.4,1.7-4.8,3.2-7.2,4.8C572.3,385.4,572.3,354.3,572.3,354.3z M547,411.6l3.1-1.8v-59.6l-9,5c-10.9,6.1-21.8,11.4-32.3,15.9l-3.7,1.6v58.9l8.5-3.6C524.5,423.4,535.7,417.8,547,411.6z M517.3,380.8c6.8-3,13.7-6.3,20.7-9.9v31.8c-6.9,3.8-13.8,7.2-20.7,10.4V380.8z M491.3,435.8l4.1-1.4v-58.5l-8.1,2.7c-19.2,6.5-30.5,7.6-30.6,7.6l-5.6,0.5v57.8l6.6-0.6C458.3,444,470.5,442.8,491.3,435.8z M463.4,397.6c4.3-0.7,11-2.2,19.8-4.8v32.8c-8.6,2.7-15.3,4.3-19.8,5.2V397.6z M918.3,637.3l-6.9-5.1L895.8,682l3.6,2.6c21.3,15.2,34.2,26.1,34.3,26.2l10,8.5v-61.9l-2.1-1.8C941.3,655.3,933,648.2,918.3,637.3z M931.6,693.4c-5.3-4.1-12.5-9.7-21.5-16.2l7.8-25c6.6,5,11.2,8.7,13.7,10.8V693.4z M895,623.7c-27.5-20.3-35.6-25.3-44.1-30.2l-6.2-3.6l-18.2,48.7l4.6,2.5c9.3,5.2,18,10.4,46.2,31.2l7.2,5.3l13.8-51.5L895,623.7z M877.4,657.3c-19.3-14-28.3-19.8-35.7-24.2l9.4-25.4c5.9,3.6,14.7,9.5,33.3,23.3C884.4,631.1,877.4,657.3,877.4,657.3z M827.4,584.7c-9.6-5.3-19.7-10.5-30.2-15.5l-6.9-3.3L778.8,618l4.3,2.1c9.1,4.4,18,8.9,26.5,13.5l6.5,3.5l15.7-50L827.4,584.7z M808.9,619.4c-5.3-2.8-10.7-5.5-16.2-8.2l6.1-27.6c6.3,3.1,12.4,6.3,18.3,9.5L808.9,619.4z M776,558.6c-9.5-4.3-19.2-8.3-29.2-12.1l-6.5-2.5l-12.1,51.6l5,1.9c9.4,3.6,18.6,7.4,27.7,11.5l6.6,3l13.2-51.3L776,558.6z M759.2,594.9c-5.5-2.4-11.1-4.7-16.8-6.9l6.5-27.6c5.8,2.3,11.6,4.7,17.3,7.2L759.2,594.9z M681.7,531.5l-6.4-0.7l-3.6,52.9l5.7,0.7c12.8,1.6,24.1,3.5,33.7,5.7l6.3,1.4l9.1-52.3l-5.7-1.3C709.8,535.4,696.6,533.3,681.7,531.5z M707.5,576.9c-6.9-1.4-14.6-2.7-22.9-3.8l2-28.6c9.5,1.2,18.2,2.6,25.9,4.2L707.5,576.9z M624.2,527.1l-6.5-0.3l0.9,53l5.7,0.3c10.7,0.6,21.2,1.4,31.3,2.3l6.1,0.6l5-52.7l-6.1-0.5C648,528.6,637.4,527.7,624.2,527.1z M650.6,569.7c-6.5-0.6-13.3-1-20-1.5l-0.5-28.6c8.1,0.5,15.4,1,23.2,1.7L650.6,569.7z M601.9,526.4c-13-0.5-26.1-0.7-38.8-0.9l-6.5-0.1l2.7,52.6l5.7,0.1c13,0.2,24.3,0.5,37.6,1l6.5,0.3l-1.4-52.8L601.9,526.4z M570.9,566l-1.4-28.2c8.7,0.1,17.5,0.3,26.3,0.6l0.8,28.3C587.7,566.4,579.6,566.2,570.9,566z M541.7,525.4c-10.5,0-19.7,0.3-28.5,0.5l-18.8,0.5l-4,51.9l6.7-0.1c12-0.2,25.2-0.4,39.2-0.4l13.8,0l-2.6-52.5L541.7,525.4L541.7,525.4z M536.3,565.7c-11.5,0-22.5,0.1-32.7,0.3l2.1-27.5l7.9-0.2c7-0.2,14.4-0.4,22.4-0.5l1.4,28H536.3z M445.7,527.6l-4.9,0.3l-9.2,52.6l7.6-0.4c0,0,14.2-0.7,36.5-1.4l5.2-0.2l6.6-52.4l-7.1,0.2C459.2,526.9,445.7,527.6,445.7,527.6z M470.3,566.7c-10.2,0.3-18.5,0.6-23.9,0.8l4.8-27.9c4.7-0.2,12.4-0.5,22.6-0.8L470.3,566.7z M675.7,427.4c2.7-0.3,5.2-0.3,7.4-0.1c4.1,0.3,7.8-1.7,8.5-5.5c0.6-3.8-3-8.5-8.4-8.8c-2.8-0.1-6.1-0.1-9.7,0.3c-23.1,2.3-40.2,18.6-37.6,44.6c2.2,21.7,17.4,36.9,43.9,34.2c3.6-0.4,7-1,9.8-1.8c5.3-1.4,8.4-6.5,7.4-10.2c-1.1-3.7-4.9-5.1-8.9-4.1c-2.3,0.6-4.8,1.1-7.3,1.3c-15.3,1.6-25.3-7.1-26.9-22.4C652.3,438.1,662.1,428.7,675.7,427.4z M723.8,427.1c-0.5-9-4.8-16-9.6-15.7c-4.8,0.3-8.2,7.8-7.7,16.8l2.6,44.2c0.5,9,4.8,16,9.6,15.7c4.8-0.3,8.2-7.8,7.7-16.8L723.8,427.1z M795.5,486.5c5,0,9.1-7.2,9.1-16.2l0.1-44.3c0-9-3.6-16.3-8-16.3c-4.4,0-8,5-8,11.1c0,6.2,0,11.1,0,11.1c0,5.6,0.1,10.9,0.3,16.1c0.3,8.9-1.6,10-5,2.7c-2.1-4.5-4.4-8.9-6.6-13l-8-14.1c-4.4-7.8-12.5-14.1-18.1-14.1c-5.6,0-10.2,7.3-10.2,16.3l-0.1,44.3c0,9,3.6,16.3,8,16.3c4.4,0,8-5.2,8-11.5c0-6.4,0-11.6,0-11.6c0-6.1,0-11.9-0.1-17.3c-0.1-9,2.3-10,6.1-2.5c2.3,4.7,4.7,9.3,7,13.4l8.5,15.4C782.9,480.1,790.5,486.5,795.5,486.5z M857.2,429.3c8.2,1,15.2-1.3,15.7-5.2c0.5-3.9-6.4-7.9-15.3-9l-14.6-1.8c-9-1.1-17.1,5.2-18.1,14.2l-5.4,43.9c-1.1,8.9,5.3,17,14.2,18.1l16.2,2c8.9,1.1,16.5-1.2,17-5.1c0.5-3.9-6.1-7.9-14.8-9c-8.6-1.1-15.1-6-14.5-10.9c0.6-5,7.4-8.3,15.1-7.3c7.7,0.9,14.3-1.4,14.9-5.3c0.5-3.9-5.4-7.8-13.2-8.7c-7.7-0.9-13.6-5.3-13-9.6C841.9,431,849,428.3,857.2,429.3z"/></g><g></g><g></g><g></g><g></g><g></g><g></g><g></g><g></g><g></g><g></g><g></g><g></g><g></g><g></g><g></g></g>
</svg>